<svg xmlns="http://www.w3.org/2000/svg" xmlns:xlink="http://www.w3.org/1999/xlink" version="1.1" x="0px" y="0px" viewBox="0 0 30 37.5" xml:space="preserve"><g transform="translate(-450 -780)"><g xmlns="http://www.w3.org/2000/svg" xmlns:xlink="http://www.w3.org/1999/xlink"><polygon points="472,803 455,803 455,792 472,792 472,789 466,789 466,783 452,783 452,807 472,807   "/><polygon points="472,788 467,783 467,788   "/><path d="M476,802v-9h-20v9H476z M459,800h-1v-1h1V800z M464,796h-3v3h3v1h-4v-5h4V796z M469,798h-3v2h-1v-5h4V798z M471,800h-1v-5    h4v3h-3V800z"/><rect x="471" y="796" width="2" height="1"/><rect x="466" y="796" width="2" height="1"/></g></g><text x="0" y="45" fill="#000000" font-size="5px" font-weight="bold" font-family="'Helvetica Neue', Helvetica, Arial-Unicode, Arial, Sans-serif">Created by Hea Poh Lin</text><text x="0" y="50" fill="#000000" font-size="5px" font-weight="bold" font-family="'Helvetica Neue', Helvetica, Arial-Unicode, Arial, Sans-serif">from the Noun Project</text></svg>