<svg xmlns="http://www.w3.org/2000/svg" xmlns:xlink="http://www.w3.org/1999/xlink" version="1.1" x="0px" y="0px" viewBox="0 0 100 125" style="enable-background:new 0 0 100 100;" xml:space="preserve"><style type="text/css">
	.st0{fill-rule:evenodd;clip-rule:evenodd;}
</style><path class="st0" d="M4.976,21.49h29.181l5.89-6.597c0.282-0.378,0.732-0.623,1.24-0.623h53.69c0-3.122,0.47-5.735-1.533-7.737  C92.498,5.587,91.194,5,89.762,5H10.19c-2.864,0-5.214,2.349-5.214,5.214V21.49L4.976,21.49z M94.976,17.36v72.426  c0,2.864-2.35,5.214-5.214,5.214H10.19c-2.864,0-5.214-2.349-5.214-5.214V24.58H34.84v-0.006c0.422,0,0.843-0.173,1.147-0.513  l5.983-6.701H94.976L94.976,17.36z M14.19,14.929c-2.034,0-2.034-3.09,0-3.09h3.833c2.034,0,2.034,3.09,0,3.09H14.19L14.19,14.929z   M26.694,14.929c-2.034,0-2.034-3.09,0-3.09h3.833c2.034,0,2.034,3.09,0,3.09H26.694L26.694,14.929z M39.191,62.204L28.27,55.999  l10.921-6.205c1.764-1.002,0.242-3.681-1.521-2.679l-13.267,7.538c-1.051,0.59-1.053,2.095-0.012,2.686l13.279,7.545  C39.433,65.884,40.955,63.205,39.191,62.204L39.191,62.204z M48.872,66.08l5.189-19.365c0.525-1.962-2.456-2.76-2.981-0.797  l-5.189,19.365C45.366,67.245,48.348,68.043,48.872,66.08L48.872,66.08z M76.14,55.238l-0.579,2.1  C76.301,56.919,76.56,55.978,76.14,55.238L76.14,55.238z M75.561,57.339l-13.279,7.545L75.561,57.339L75.561,57.339z M62.282,64.883  l13.279-10.224l-13.279-7.545c-1.763-1.001-3.285,1.678-1.521,2.679l10.921,6.205l-10.921,6.205  C58.997,63.205,60.519,65.884,62.282,64.883L62.282,64.883z M24.391,54.659l0.012-0.007L24.391,54.659z"/><text x="0" y="115" fill="#000000" font-size="5px" font-weight="bold" font-family="'Helvetica Neue', Helvetica, Arial-Unicode, Arial, Sans-serif">Created by Win Ningsih</text><text x="0" y="120" fill="#000000" font-size="5px" font-weight="bold" font-family="'Helvetica Neue', Helvetica, Arial-Unicode, Arial, Sans-serif">from the Noun Project</text></svg>